<mxfile host="app.diagrams.net" modified="2021-09-20T12:49:18.308Z" agent="5.0 (Windows NT 10.0; Win64; x64) AppleWebKit/537.36 (KHTML, like Gecko) Chrome/93.0.4577.82 Safari/537.36" etag="ZZnwY8eEW8CFvaHxOmEK" version="14.4.8" type="github">
  <diagram id="tkSsvwyT-QKNX5b_GbQI" name="第 1 页">
    <mxGraphModel dx="1662" dy="762" grid="1" gridSize="10" guides="1" tooltips="1" connect="1" arrows="1" fold="1" page="1" pageScale="1" pageWidth="827" pageHeight="1169" math="0" shadow="0">
      <root>
        <mxCell id="0" />
        <mxCell id="1" parent="0" />
        <mxCell id="td2FWiPlg4FryS3ejVmA-80" value="" style="shape=cube;whiteSpace=wrap;html=1;boundedLbl=1;backgroundOutline=1;darkOpacity=0.05;darkOpacity2=0.1;" vertex="1" parent="1">
          <mxGeometry x="540" y="320" width="40" height="60" as="geometry" />
        </mxCell>
        <mxCell id="td2FWiPlg4FryS3ejVmA-81" value="" style="shape=cube;whiteSpace=wrap;html=1;boundedLbl=1;backgroundOutline=1;darkOpacity=0.05;darkOpacity2=0.1;" vertex="1" parent="1">
          <mxGeometry x="510" y="320" width="40" height="60" as="geometry" />
        </mxCell>
        <mxCell id="td2FWiPlg4FryS3ejVmA-82" value="" style="shape=cylinder3;whiteSpace=wrap;html=1;boundedLbl=1;backgroundOutline=1;size=15;" vertex="1" parent="1">
          <mxGeometry x="480" y="196.66000000000003" width="50" height="41.67" as="geometry" />
        </mxCell>
        <mxCell id="td2FWiPlg4FryS3ejVmA-83" value="" style="shape=cube;whiteSpace=wrap;html=1;boundedLbl=1;backgroundOutline=1;darkOpacity=0.05;darkOpacity2=0.1;" vertex="1" parent="1">
          <mxGeometry x="480" y="320" width="40" height="60" as="geometry" />
        </mxCell>
        <mxCell id="td2FWiPlg4FryS3ejVmA-84" value="" style="shape=cube;whiteSpace=wrap;html=1;boundedLbl=1;backgroundOutline=1;darkOpacity=0.05;darkOpacity2=0.1;" vertex="1" parent="1">
          <mxGeometry x="450" y="320" width="40" height="60" as="geometry" />
        </mxCell>
        <mxCell id="td2FWiPlg4FryS3ejVmA-85" value="" style="endArrow=none;html=1;exitX=0;exitY=0;exitDx=10;exitDy=0;exitPerimeter=0;entryX=0.145;entryY=1;entryDx=0;entryDy=-4.35;entryPerimeter=0;" edge="1" parent="1" source="td2FWiPlg4FryS3ejVmA-84" target="td2FWiPlg4FryS3ejVmA-82">
          <mxGeometry width="50" height="50" relative="1" as="geometry">
            <mxPoint x="760" y="420" as="sourcePoint" />
            <mxPoint x="810" y="370" as="targetPoint" />
          </mxGeometry>
        </mxCell>
        <mxCell id="td2FWiPlg4FryS3ejVmA-86" value="" style="endArrow=none;html=1;exitX=0;exitY=0;exitDx=10;exitDy=0;exitPerimeter=0;entryX=0.38;entryY=1.016;entryDx=0;entryDy=0;entryPerimeter=0;" edge="1" parent="1" source="td2FWiPlg4FryS3ejVmA-83" target="td2FWiPlg4FryS3ejVmA-82">
          <mxGeometry width="50" height="50" relative="1" as="geometry">
            <mxPoint x="470" y="330" as="sourcePoint" />
            <mxPoint x="535" y="180" as="targetPoint" />
          </mxGeometry>
        </mxCell>
        <mxCell id="td2FWiPlg4FryS3ejVmA-87" value="" style="endArrow=none;html=1;exitX=0;exitY=0;exitDx=10;exitDy=0;exitPerimeter=0;" edge="1" parent="1" source="td2FWiPlg4FryS3ejVmA-81" target="td2FWiPlg4FryS3ejVmA-82">
          <mxGeometry width="50" height="50" relative="1" as="geometry">
            <mxPoint x="500" y="330" as="sourcePoint" />
            <mxPoint x="535" y="180" as="targetPoint" />
          </mxGeometry>
        </mxCell>
        <mxCell id="td2FWiPlg4FryS3ejVmA-88" value="" style="endArrow=none;html=1;exitX=0;exitY=0;exitDx=10;exitDy=0;exitPerimeter=0;entryX=0.855;entryY=1;entryDx=0;entryDy=-4.35;entryPerimeter=0;" edge="1" parent="1" source="td2FWiPlg4FryS3ejVmA-80" target="td2FWiPlg4FryS3ejVmA-82">
          <mxGeometry width="50" height="50" relative="1" as="geometry">
            <mxPoint x="510" y="340" as="sourcePoint" />
            <mxPoint x="545" y="190" as="targetPoint" />
          </mxGeometry>
        </mxCell>
        <mxCell id="td2FWiPlg4FryS3ejVmA-71" value="" style="shape=cube;whiteSpace=wrap;html=1;boundedLbl=1;backgroundOutline=1;darkOpacity=0.05;darkOpacity2=0.1;" vertex="1" parent="1">
          <mxGeometry x="420" y="320" width="40" height="60" as="geometry" />
        </mxCell>
        <mxCell id="td2FWiPlg4FryS3ejVmA-72" value="" style="shape=cube;whiteSpace=wrap;html=1;boundedLbl=1;backgroundOutline=1;darkOpacity=0.05;darkOpacity2=0.1;" vertex="1" parent="1">
          <mxGeometry x="390" y="320" width="40" height="60" as="geometry" />
        </mxCell>
        <mxCell id="td2FWiPlg4FryS3ejVmA-74" value="" style="shape=cube;whiteSpace=wrap;html=1;boundedLbl=1;backgroundOutline=1;darkOpacity=0.05;darkOpacity2=0.1;" vertex="1" parent="1">
          <mxGeometry x="360" y="320" width="40" height="60" as="geometry" />
        </mxCell>
        <mxCell id="td2FWiPlg4FryS3ejVmA-75" value="" style="shape=cube;whiteSpace=wrap;html=1;boundedLbl=1;backgroundOutline=1;darkOpacity=0.05;darkOpacity2=0.1;" vertex="1" parent="1">
          <mxGeometry x="330" y="320" width="40" height="60" as="geometry" />
        </mxCell>
        <mxCell id="td2FWiPlg4FryS3ejVmA-76" value="" style="endArrow=none;html=1;exitX=0;exitY=0;exitDx=10;exitDy=0;exitPerimeter=0;entryX=0.145;entryY=1;entryDx=0;entryDy=-4.35;entryPerimeter=0;" edge="1" parent="1" source="td2FWiPlg4FryS3ejVmA-75" target="td2FWiPlg4FryS3ejVmA-73">
          <mxGeometry width="50" height="50" relative="1" as="geometry">
            <mxPoint x="640" y="420" as="sourcePoint" />
            <mxPoint x="390" y="238" as="targetPoint" />
          </mxGeometry>
        </mxCell>
        <mxCell id="td2FWiPlg4FryS3ejVmA-77" value="" style="endArrow=none;html=1;exitX=0;exitY=0;exitDx=10;exitDy=0;exitPerimeter=0;entryX=0.3;entryY=1;entryDx=0;entryDy=0;entryPerimeter=0;" edge="1" parent="1" source="td2FWiPlg4FryS3ejVmA-74" target="td2FWiPlg4FryS3ejVmA-73">
          <mxGeometry width="50" height="50" relative="1" as="geometry">
            <mxPoint x="350" y="330" as="sourcePoint" />
            <mxPoint x="415" y="180" as="targetPoint" />
          </mxGeometry>
        </mxCell>
        <mxCell id="td2FWiPlg4FryS3ejVmA-78" value="" style="endArrow=none;html=1;exitX=0;exitY=0;exitDx=10;exitDy=0;exitPerimeter=0;" edge="1" parent="1" source="td2FWiPlg4FryS3ejVmA-72" target="td2FWiPlg4FryS3ejVmA-73">
          <mxGeometry width="50" height="50" relative="1" as="geometry">
            <mxPoint x="380" y="330" as="sourcePoint" />
            <mxPoint x="415" y="180" as="targetPoint" />
          </mxGeometry>
        </mxCell>
        <mxCell id="td2FWiPlg4FryS3ejVmA-79" value="" style="endArrow=none;html=1;exitX=0;exitY=0;exitDx=10;exitDy=0;exitPerimeter=0;" edge="1" parent="1" source="td2FWiPlg4FryS3ejVmA-71">
          <mxGeometry width="50" height="50" relative="1" as="geometry">
            <mxPoint x="390" y="340" as="sourcePoint" />
            <mxPoint x="410" y="238" as="targetPoint" />
          </mxGeometry>
        </mxCell>
        <mxCell id="td2FWiPlg4FryS3ejVmA-3" value="" style="shape=cylinder3;whiteSpace=wrap;html=1;boundedLbl=1;backgroundOutline=1;size=15;" vertex="1" parent="1">
          <mxGeometry x="240" y="90" width="50" height="41.67" as="geometry" />
        </mxCell>
        <mxCell id="td2FWiPlg4FryS3ejVmA-19" value="" style="shape=cylinder3;whiteSpace=wrap;html=1;boundedLbl=1;backgroundOutline=1;size=15;" vertex="1" parent="1">
          <mxGeometry x="115" y="90" width="50" height="41.67" as="geometry" />
        </mxCell>
        <mxCell id="td2FWiPlg4FryS3ejVmA-62" value="" style="shape=cube;whiteSpace=wrap;html=1;boundedLbl=1;backgroundOutline=1;darkOpacity=0.05;darkOpacity2=0.1;" vertex="1" parent="1">
          <mxGeometry x="300" y="320" width="40" height="60" as="geometry" />
        </mxCell>
        <mxCell id="td2FWiPlg4FryS3ejVmA-63" value="" style="shape=cube;whiteSpace=wrap;html=1;boundedLbl=1;backgroundOutline=1;darkOpacity=0.05;darkOpacity2=0.1;" vertex="1" parent="1">
          <mxGeometry x="270" y="320" width="40" height="60" as="geometry" />
        </mxCell>
        <mxCell id="td2FWiPlg4FryS3ejVmA-65" value="" style="shape=cube;whiteSpace=wrap;html=1;boundedLbl=1;backgroundOutline=1;darkOpacity=0.05;darkOpacity2=0.1;" vertex="1" parent="1">
          <mxGeometry x="240" y="320" width="40" height="60" as="geometry" />
        </mxCell>
        <mxCell id="td2FWiPlg4FryS3ejVmA-66" value="" style="shape=cube;whiteSpace=wrap;html=1;boundedLbl=1;backgroundOutline=1;darkOpacity=0.05;darkOpacity2=0.1;" vertex="1" parent="1">
          <mxGeometry x="210" y="320" width="40" height="60" as="geometry" />
        </mxCell>
        <mxCell id="td2FWiPlg4FryS3ejVmA-67" value="" style="endArrow=none;html=1;exitX=0;exitY=0;exitDx=10;exitDy=0;exitPerimeter=0;" edge="1" parent="1" source="td2FWiPlg4FryS3ejVmA-66">
          <mxGeometry width="50" height="50" relative="1" as="geometry">
            <mxPoint x="520" y="420" as="sourcePoint" />
            <mxPoint x="260" y="238" as="targetPoint" />
          </mxGeometry>
        </mxCell>
        <mxCell id="td2FWiPlg4FryS3ejVmA-68" value="" style="endArrow=none;html=1;exitX=0;exitY=0;exitDx=10;exitDy=0;exitPerimeter=0;entryX=0.5;entryY=1;entryDx=0;entryDy=0;entryPerimeter=0;" edge="1" parent="1" source="td2FWiPlg4FryS3ejVmA-65" target="td2FWiPlg4FryS3ejVmA-64">
          <mxGeometry width="50" height="50" relative="1" as="geometry">
            <mxPoint x="230" y="330" as="sourcePoint" />
            <mxPoint x="295" y="180" as="targetPoint" />
          </mxGeometry>
        </mxCell>
        <mxCell id="td2FWiPlg4FryS3ejVmA-69" value="" style="endArrow=none;html=1;exitX=0;exitY=0;exitDx=10;exitDy=0;exitPerimeter=0;" edge="1" parent="1" source="td2FWiPlg4FryS3ejVmA-63">
          <mxGeometry width="50" height="50" relative="1" as="geometry">
            <mxPoint x="260" y="330" as="sourcePoint" />
            <mxPoint x="280" y="238" as="targetPoint" />
          </mxGeometry>
        </mxCell>
        <mxCell id="td2FWiPlg4FryS3ejVmA-70" value="" style="endArrow=none;html=1;exitX=0;exitY=0;exitDx=10;exitDy=0;exitPerimeter=0;entryX=0.855;entryY=1;entryDx=0;entryDy=-4.35;entryPerimeter=0;" edge="1" parent="1" source="td2FWiPlg4FryS3ejVmA-62" target="td2FWiPlg4FryS3ejVmA-64">
          <mxGeometry width="50" height="50" relative="1" as="geometry">
            <mxPoint x="270" y="340" as="sourcePoint" />
            <mxPoint x="305" y="190" as="targetPoint" />
          </mxGeometry>
        </mxCell>
        <mxCell id="td2FWiPlg4FryS3ejVmA-32" value="" style="shape=cube;whiteSpace=wrap;html=1;boundedLbl=1;backgroundOutline=1;darkOpacity=0.05;darkOpacity2=0.1;" vertex="1" parent="1">
          <mxGeometry x="175" y="320" width="40" height="60" as="geometry" />
        </mxCell>
        <mxCell id="td2FWiPlg4FryS3ejVmA-31" value="" style="shape=cube;whiteSpace=wrap;html=1;boundedLbl=1;backgroundOutline=1;darkOpacity=0.05;darkOpacity2=0.1;" vertex="1" parent="1">
          <mxGeometry x="145" y="320" width="40" height="60" as="geometry" />
        </mxCell>
        <mxCell id="td2FWiPlg4FryS3ejVmA-1" value="" style="shape=cylinder3;whiteSpace=wrap;html=1;boundedLbl=1;backgroundOutline=1;size=15;" vertex="1" parent="1">
          <mxGeometry x="120" y="196.66000000000003" width="50" height="41.67" as="geometry" />
        </mxCell>
        <mxCell id="td2FWiPlg4FryS3ejVmA-23" value="" style="shape=cube;whiteSpace=wrap;html=1;boundedLbl=1;backgroundOutline=1;darkOpacity=0.05;darkOpacity2=0.1;" vertex="1" parent="1">
          <mxGeometry x="115" y="320" width="40" height="60" as="geometry" />
        </mxCell>
        <mxCell id="td2FWiPlg4FryS3ejVmA-33" value="" style="shape=cube;whiteSpace=wrap;html=1;boundedLbl=1;backgroundOutline=1;darkOpacity=0.05;darkOpacity2=0.1;" vertex="1" parent="1">
          <mxGeometry x="85" y="320" width="40" height="60" as="geometry" />
        </mxCell>
        <mxCell id="td2FWiPlg4FryS3ejVmA-48" value="" style="endArrow=none;html=1;exitX=0;exitY=0;exitDx=10;exitDy=0;exitPerimeter=0;entryX=0.145;entryY=1;entryDx=0;entryDy=-4.35;entryPerimeter=0;" edge="1" parent="1" source="td2FWiPlg4FryS3ejVmA-33" target="td2FWiPlg4FryS3ejVmA-1">
          <mxGeometry width="50" height="50" relative="1" as="geometry">
            <mxPoint x="395" y="420" as="sourcePoint" />
            <mxPoint x="445" y="370" as="targetPoint" />
          </mxGeometry>
        </mxCell>
        <mxCell id="td2FWiPlg4FryS3ejVmA-49" value="" style="endArrow=none;html=1;exitX=0;exitY=0;exitDx=10;exitDy=0;exitPerimeter=0;entryX=0.36;entryY=1.064;entryDx=0;entryDy=0;entryPerimeter=0;" edge="1" parent="1" source="td2FWiPlg4FryS3ejVmA-23" target="td2FWiPlg4FryS3ejVmA-1">
          <mxGeometry width="50" height="50" relative="1" as="geometry">
            <mxPoint x="105" y="330" as="sourcePoint" />
            <mxPoint x="170" y="180" as="targetPoint" />
          </mxGeometry>
        </mxCell>
        <mxCell id="td2FWiPlg4FryS3ejVmA-51" value="" style="endArrow=none;html=1;exitX=0;exitY=0;exitDx=10;exitDy=0;exitPerimeter=0;" edge="1" parent="1" source="td2FWiPlg4FryS3ejVmA-31" target="td2FWiPlg4FryS3ejVmA-1">
          <mxGeometry width="50" height="50" relative="1" as="geometry">
            <mxPoint x="135" y="330" as="sourcePoint" />
            <mxPoint x="170" y="180" as="targetPoint" />
          </mxGeometry>
        </mxCell>
        <mxCell id="td2FWiPlg4FryS3ejVmA-52" value="" style="endArrow=none;html=1;exitX=0;exitY=0;exitDx=10;exitDy=0;exitPerimeter=0;entryX=0.855;entryY=1;entryDx=0;entryDy=-4.35;entryPerimeter=0;" edge="1" parent="1" source="td2FWiPlg4FryS3ejVmA-32" target="td2FWiPlg4FryS3ejVmA-1">
          <mxGeometry width="50" height="50" relative="1" as="geometry">
            <mxPoint x="145" y="340" as="sourcePoint" />
            <mxPoint x="180" y="190" as="targetPoint" />
          </mxGeometry>
        </mxCell>
        <mxCell id="td2FWiPlg4FryS3ejVmA-89" value="" style="endArrow=none;html=1;exitX=0;exitY=0;exitDx=10;exitDy=0;exitPerimeter=0;entryX=0.3;entryY=1.032;entryDx=0;entryDy=0;entryPerimeter=0;" edge="1" parent="1" source="td2FWiPlg4FryS3ejVmA-33" target="td2FWiPlg4FryS3ejVmA-19">
          <mxGeometry width="50" height="50" relative="1" as="geometry">
            <mxPoint x="105" y="330" as="sourcePoint" />
            <mxPoint x="155" y="248.33000000000004" as="targetPoint" />
          </mxGeometry>
        </mxCell>
        <mxCell id="td2FWiPlg4FryS3ejVmA-90" value="" style="endArrow=none;html=1;exitX=0;exitY=0;exitDx=10;exitDy=0;exitPerimeter=0;" edge="1" parent="1" source="td2FWiPlg4FryS3ejVmA-66">
          <mxGeometry width="50" height="50" relative="1" as="geometry">
            <mxPoint x="115" y="340" as="sourcePoint" />
            <mxPoint x="140" y="132" as="targetPoint" />
          </mxGeometry>
        </mxCell>
        <mxCell id="td2FWiPlg4FryS3ejVmA-91" value="" style="endArrow=none;html=1;exitX=0;exitY=0;exitDx=10;exitDy=0;exitPerimeter=0;" edge="1" parent="1" source="td2FWiPlg4FryS3ejVmA-75">
          <mxGeometry width="50" height="50" relative="1" as="geometry">
            <mxPoint x="125" y="350" as="sourcePoint" />
            <mxPoint x="150" y="132" as="targetPoint" />
          </mxGeometry>
        </mxCell>
        <mxCell id="td2FWiPlg4FryS3ejVmA-92" value="" style="endArrow=none;html=1;exitX=0;exitY=0;exitDx=10;exitDy=0;exitPerimeter=0;entryX=0.855;entryY=1;entryDx=0;entryDy=-4.35;entryPerimeter=0;" edge="1" parent="1" source="td2FWiPlg4FryS3ejVmA-84" target="td2FWiPlg4FryS3ejVmA-19">
          <mxGeometry width="50" height="50" relative="1" as="geometry">
            <mxPoint x="135" y="360" as="sourcePoint" />
            <mxPoint x="160" y="120" as="targetPoint" />
          </mxGeometry>
        </mxCell>
        <mxCell id="td2FWiPlg4FryS3ejVmA-93" value="" style="endArrow=none;html=1;exitX=0;exitY=0;exitDx=10;exitDy=0;exitPerimeter=0;entryX=0.145;entryY=1;entryDx=0;entryDy=-4.35;entryPerimeter=0;" edge="1" parent="1" source="td2FWiPlg4FryS3ejVmA-23" target="td2FWiPlg4FryS3ejVmA-3">
          <mxGeometry width="50" height="50" relative="1" as="geometry">
            <mxPoint x="145" y="370" as="sourcePoint" />
            <mxPoint x="195" y="288.33000000000004" as="targetPoint" />
          </mxGeometry>
        </mxCell>
        <mxCell id="td2FWiPlg4FryS3ejVmA-94" value="" style="endArrow=none;html=1;entryX=0.5;entryY=1;entryDx=0;entryDy=0;entryPerimeter=0;" edge="1" parent="1" target="td2FWiPlg4FryS3ejVmA-3">
          <mxGeometry width="50" height="50" relative="1" as="geometry">
            <mxPoint x="250" y="320" as="sourcePoint" />
            <mxPoint x="205" y="298.33000000000004" as="targetPoint" />
          </mxGeometry>
        </mxCell>
        <mxCell id="td2FWiPlg4FryS3ejVmA-95" value="" style="endArrow=none;html=1;exitX=0;exitY=0;exitDx=10;exitDy=0;exitPerimeter=0;entryX=0.855;entryY=1;entryDx=0;entryDy=-4.35;entryPerimeter=0;" edge="1" parent="1" source="td2FWiPlg4FryS3ejVmA-74" target="td2FWiPlg4FryS3ejVmA-3">
          <mxGeometry width="50" height="50" relative="1" as="geometry">
            <mxPoint x="165" y="390" as="sourcePoint" />
            <mxPoint x="215" y="308.33000000000004" as="targetPoint" />
          </mxGeometry>
        </mxCell>
        <mxCell id="td2FWiPlg4FryS3ejVmA-96" value="" style="endArrow=none;html=1;exitX=0;exitY=0;exitDx=10;exitDy=0;exitPerimeter=0;" edge="1" parent="1" source="td2FWiPlg4FryS3ejVmA-83">
          <mxGeometry width="50" height="50" relative="1" as="geometry">
            <mxPoint x="175" y="400" as="sourcePoint" />
            <mxPoint x="290" y="120" as="targetPoint" />
          </mxGeometry>
        </mxCell>
        <mxCell id="td2FWiPlg4FryS3ejVmA-97" value="" style="endArrow=none;html=1;exitX=0;exitY=0;exitDx=10;exitDy=0;exitPerimeter=0;entryX=0.145;entryY=1;entryDx=0;entryDy=-4.35;entryPerimeter=0;" edge="1" parent="1" source="td2FWiPlg4FryS3ejVmA-31" target="td2FWiPlg4FryS3ejVmA-98">
          <mxGeometry width="50" height="50" relative="1" as="geometry">
            <mxPoint x="330" y="211.67" as="sourcePoint" />
            <mxPoint x="380" y="130.00000000000003" as="targetPoint" />
          </mxGeometry>
        </mxCell>
        <mxCell id="td2FWiPlg4FryS3ejVmA-98" value="" style="shape=cylinder3;whiteSpace=wrap;html=1;boundedLbl=1;backgroundOutline=1;size=15;" vertex="1" parent="1">
          <mxGeometry x="360" y="90" width="50" height="41.67" as="geometry" />
        </mxCell>
        <mxCell id="td2FWiPlg4FryS3ejVmA-99" value="" style="shape=cylinder3;whiteSpace=wrap;html=1;boundedLbl=1;backgroundOutline=1;size=15;" vertex="1" parent="1">
          <mxGeometry x="475" y="90" width="50" height="41.67" as="geometry" />
        </mxCell>
        <mxCell id="td2FWiPlg4FryS3ejVmA-101" value="" style="endArrow=none;html=1;entryX=0.34;entryY=0.984;entryDx=0;entryDy=0;entryPerimeter=0;" edge="1" parent="1" target="td2FWiPlg4FryS3ejVmA-98">
          <mxGeometry width="50" height="50" relative="1" as="geometry">
            <mxPoint x="280" y="320" as="sourcePoint" />
            <mxPoint x="390" y="140" as="targetPoint" />
          </mxGeometry>
        </mxCell>
        <mxCell id="td2FWiPlg4FryS3ejVmA-102" value="" style="endArrow=none;html=1;exitX=0;exitY=0;exitDx=10;exitDy=0;exitPerimeter=0;entryX=0.66;entryY=1.032;entryDx=0;entryDy=0;entryPerimeter=0;" edge="1" parent="1" source="td2FWiPlg4FryS3ejVmA-72" target="td2FWiPlg4FryS3ejVmA-98">
          <mxGeometry width="50" height="50" relative="1" as="geometry">
            <mxPoint x="175" y="340" as="sourcePoint" />
            <mxPoint x="400" y="150" as="targetPoint" />
          </mxGeometry>
        </mxCell>
        <mxCell id="td2FWiPlg4FryS3ejVmA-103" value="" style="endArrow=none;html=1;exitX=0;exitY=0;exitDx=10;exitDy=0;exitPerimeter=0;entryX=0.855;entryY=1;entryDx=0;entryDy=-4.35;entryPerimeter=0;" edge="1" parent="1" source="td2FWiPlg4FryS3ejVmA-81" target="td2FWiPlg4FryS3ejVmA-98">
          <mxGeometry width="50" height="50" relative="1" as="geometry">
            <mxPoint x="185" y="350" as="sourcePoint" />
            <mxPoint x="410" y="160" as="targetPoint" />
          </mxGeometry>
        </mxCell>
        <mxCell id="td2FWiPlg4FryS3ejVmA-104" value="" style="endArrow=none;html=1;exitX=0;exitY=0;exitDx=10;exitDy=0;exitPerimeter=0;entryX=0.145;entryY=1;entryDx=0;entryDy=-4.35;entryPerimeter=0;" edge="1" parent="1" source="td2FWiPlg4FryS3ejVmA-32" target="td2FWiPlg4FryS3ejVmA-99">
          <mxGeometry width="50" height="50" relative="1" as="geometry">
            <mxPoint x="195" y="360" as="sourcePoint" />
            <mxPoint x="420" y="170" as="targetPoint" />
          </mxGeometry>
        </mxCell>
        <mxCell id="td2FWiPlg4FryS3ejVmA-105" value="" style="endArrow=none;html=1;exitX=0;exitY=0;exitDx=10;exitDy=0;exitPerimeter=0;entryX=0.3;entryY=0.984;entryDx=0;entryDy=0;entryPerimeter=0;" edge="1" parent="1" source="td2FWiPlg4FryS3ejVmA-62" target="td2FWiPlg4FryS3ejVmA-99">
          <mxGeometry width="50" height="50" relative="1" as="geometry">
            <mxPoint x="205" y="370" as="sourcePoint" />
            <mxPoint x="430" y="180" as="targetPoint" />
          </mxGeometry>
        </mxCell>
        <mxCell id="td2FWiPlg4FryS3ejVmA-106" value="" style="endArrow=none;html=1;exitX=0;exitY=0;exitDx=10;exitDy=0;exitPerimeter=0;entryX=0.5;entryY=0.96;entryDx=0;entryDy=0;entryPerimeter=0;" edge="1" parent="1" source="td2FWiPlg4FryS3ejVmA-71" target="td2FWiPlg4FryS3ejVmA-99">
          <mxGeometry width="50" height="50" relative="1" as="geometry">
            <mxPoint x="215" y="380" as="sourcePoint" />
            <mxPoint x="510" y="130" as="targetPoint" />
          </mxGeometry>
        </mxCell>
        <mxCell id="td2FWiPlg4FryS3ejVmA-107" value="" style="endArrow=none;html=1;exitX=0;exitY=0;exitDx=10;exitDy=0;exitPerimeter=0;entryX=0.855;entryY=1;entryDx=0;entryDy=-4.35;entryPerimeter=0;" edge="1" parent="1" source="td2FWiPlg4FryS3ejVmA-80" target="td2FWiPlg4FryS3ejVmA-99">
          <mxGeometry width="50" height="50" relative="1" as="geometry">
            <mxPoint x="225" y="390" as="sourcePoint" />
            <mxPoint x="450" y="200" as="targetPoint" />
          </mxGeometry>
        </mxCell>
        <mxCell id="td2FWiPlg4FryS3ejVmA-108" value="&lt;font style=&quot;font-size: 14px&quot;&gt;&lt;b&gt;s1&lt;/b&gt;&lt;/font&gt;" style="text;html=1;strokeColor=none;fillColor=none;align=center;verticalAlign=middle;whiteSpace=wrap;rounded=0;" vertex="1" parent="1">
          <mxGeometry x="125" y="200" width="40" height="20" as="geometry" />
        </mxCell>
        <mxCell id="td2FWiPlg4FryS3ejVmA-115" value="&lt;font style=&quot;font-size: 14px&quot;&gt;&lt;b&gt;s4&lt;/b&gt;&lt;/font&gt;&lt;span style=&quot;color: rgba(0 , 0 , 0 , 0) ; font-family: monospace ; font-size: 0px&quot;&gt;%3CmxGraphModel%3E%3Croot%3E%3CmxCell%20id%3D%220%22%2F%3E%3CmxCell%20id%3D%221%22%20parent%3D%220%22%2F%3E%3CmxCell%20id%3D%222%22%20value%3D%22%26lt%3Bfont%20style%3D%26quot%3Bfont-size%3A%2014px%26quot%3B%26gt%3B%26lt%3Bb%26gt%3Bs1%26lt%3B%2Fb%26gt%3B%26lt%3B%2Ffont%26gt%3B%22%20style%3D%22text%3Bhtml%3D1%3BstrokeColor%3Dnone%3BfillColor%3Dnone%3Balign%3Dcenter%3BverticalAlign%3Dmiddle%3BwhiteSpace%3Dwrap%3Brounded%3D0%3B%22%20vertex%3D%221%22%20parent%3D%221%22%3E%3CmxGeometry%20x%3D%22125%22%20y%3D%22200%22%20width%3D%2240%22%20height%3D%2220%22%20as%3D%22geometry%22%2F%3E%3C%2FmxCell%3E%3C%2Froot%3E%3C%2FmxGraphModel%3E&lt;/span&gt;" style="text;html=1;strokeColor=none;fillColor=none;align=center;verticalAlign=middle;whiteSpace=wrap;rounded=0;" vertex="1" parent="1">
          <mxGeometry x="485" y="200" width="40" height="20" as="geometry" />
        </mxCell>
        <mxCell id="td2FWiPlg4FryS3ejVmA-116" value="&lt;font style=&quot;font-size: 14px&quot;&gt;&lt;b&gt;s5&lt;/b&gt;&lt;/font&gt;" style="text;html=1;strokeColor=none;fillColor=none;align=center;verticalAlign=middle;whiteSpace=wrap;rounded=0;" vertex="1" parent="1">
          <mxGeometry x="120" y="94.84" width="40" height="20" as="geometry" />
        </mxCell>
        <mxCell id="td2FWiPlg4FryS3ejVmA-117" value="&lt;font style=&quot;font-size: 14px&quot;&gt;&lt;b&gt;s6&lt;/b&gt;&lt;/font&gt;" style="text;html=1;strokeColor=none;fillColor=none;align=center;verticalAlign=middle;whiteSpace=wrap;rounded=0;" vertex="1" parent="1">
          <mxGeometry x="245" y="94.84" width="40" height="20" as="geometry" />
        </mxCell>
        <mxCell id="td2FWiPlg4FryS3ejVmA-118" value="&lt;font style=&quot;font-size: 14px&quot;&gt;&lt;b&gt;s7&lt;/b&gt;&lt;/font&gt;&lt;span style=&quot;color: rgba(0 , 0 , 0 , 0) ; font-family: monospace ; font-size: 0px&quot;&gt;%3CmxGraphModel%3E%3Croot%3E%3CmxCell%20id%3D%220%22%2F%3E%3CmxCell%20id%3D%221%22%20parent%3D%220%22%2F%3E%3CmxCell%20id%3D%222%22%20value%3D%22%26lt%3Bfont%20style%3D%26quot%3Bfont-size%3A%2014px%26quot%3B%26gt%3B%26lt%3Bb%26gt%3Bs5%26lt%3B%2Fb%26gt%3B%26lt%3B%2Ffont%26gt%3B%22%20style%3D%22text%3Bhtml%3D1%3BstrokeColor%3Dnone%3BfillColor%3Dnone%3Balign%3Dcenter%3BverticalAlign%3Dmiddle%3BwhiteSpace%3Dwrap%3Brounded%3D0%3B%22%20vertex%3D%221%22%20parent%3D%221%22%3E%3CmxGeometry%20x%3D%22120%22%20y%3D%2294.84%22%20width%3D%2240%22%20height%3D%2220%22%20as%3D%22geometry%22%2F%3E%3C%2FmxCell%3E%3C%2Froot%3E%3C%2FmxGraphModel%3E&lt;/span&gt;" style="text;html=1;strokeColor=none;fillColor=none;align=center;verticalAlign=middle;whiteSpace=wrap;rounded=0;" vertex="1" parent="1">
          <mxGeometry x="365" y="94.84" width="40" height="20" as="geometry" />
        </mxCell>
        <mxCell id="td2FWiPlg4FryS3ejVmA-119" value="&lt;font style=&quot;font-size: 14px&quot;&gt;&lt;b&gt;s8&lt;/b&gt;&lt;/font&gt;" style="text;html=1;strokeColor=none;fillColor=none;align=center;verticalAlign=middle;whiteSpace=wrap;rounded=0;" vertex="1" parent="1">
          <mxGeometry x="480" y="94.84" width="40" height="20" as="geometry" />
        </mxCell>
        <mxCell id="td2FWiPlg4FryS3ejVmA-64" value="" style="shape=cylinder3;whiteSpace=wrap;html=1;boundedLbl=1;backgroundOutline=1;size=15;" vertex="1" parent="1">
          <mxGeometry x="245" y="196.66000000000003" width="50" height="41.67" as="geometry" />
        </mxCell>
        <mxCell id="td2FWiPlg4FryS3ejVmA-109" value="&lt;b&gt;&lt;font style=&quot;font-size: 14px&quot;&gt;s2&lt;/font&gt;&lt;/b&gt;" style="text;html=1;strokeColor=none;fillColor=none;align=center;verticalAlign=middle;whiteSpace=wrap;rounded=0;" vertex="1" parent="1">
          <mxGeometry x="250" y="200" width="40" height="20" as="geometry" />
        </mxCell>
        <mxCell id="td2FWiPlg4FryS3ejVmA-73" value="" style="shape=cylinder3;whiteSpace=wrap;html=1;boundedLbl=1;backgroundOutline=1;size=15;" vertex="1" parent="1">
          <mxGeometry x="365" y="196.66000000000003" width="50" height="41.67" as="geometry" />
        </mxCell>
        <mxCell id="td2FWiPlg4FryS3ejVmA-110" value="&lt;font style=&quot;font-size: 14px&quot;&gt;&lt;b&gt;s3&lt;/b&gt;&lt;/font&gt;" style="text;html=1;strokeColor=none;fillColor=none;align=center;verticalAlign=middle;whiteSpace=wrap;rounded=0;" vertex="1" parent="1">
          <mxGeometry x="369" y="203" width="40" height="20" as="geometry" />
        </mxCell>
        <mxCell id="td2FWiPlg4FryS3ejVmA-120" value="1" style="text;html=1;strokeColor=none;fillColor=none;align=center;verticalAlign=middle;whiteSpace=wrap;rounded=0;" vertex="1" parent="1">
          <mxGeometry x="100" y="131.67" width="40" height="20" as="geometry" />
        </mxCell>
        <mxCell id="td2FWiPlg4FryS3ejVmA-122" value="1" style="text;html=1;strokeColor=none;fillColor=none;align=center;verticalAlign=middle;whiteSpace=wrap;rounded=0;" vertex="1" parent="1">
          <mxGeometry x="100" y="230" width="40" height="20" as="geometry" />
        </mxCell>
        <mxCell id="td2FWiPlg4FryS3ejVmA-123" value="1" style="text;html=1;strokeColor=none;fillColor=none;align=center;verticalAlign=middle;whiteSpace=wrap;rounded=0;" vertex="1" parent="1">
          <mxGeometry x="215" y="119.99999999999999" width="40" height="20" as="geometry" />
        </mxCell>
        <mxCell id="td2FWiPlg4FryS3ejVmA-124" value="1" style="text;html=1;strokeColor=none;fillColor=none;align=center;verticalAlign=middle;whiteSpace=wrap;rounded=0;" vertex="1" parent="1">
          <mxGeometry x="340" y="119.99999999999999" width="40" height="20" as="geometry" />
        </mxCell>
        <mxCell id="td2FWiPlg4FryS3ejVmA-125" value="1" style="text;html=1;strokeColor=none;fillColor=none;align=center;verticalAlign=middle;whiteSpace=wrap;rounded=0;" vertex="1" parent="1">
          <mxGeometry x="445" y="114.83999999999999" width="40" height="20" as="geometry" />
        </mxCell>
        <mxCell id="td2FWiPlg4FryS3ejVmA-126" value="1" style="text;html=1;strokeColor=none;fillColor=none;align=center;verticalAlign=middle;whiteSpace=wrap;rounded=0;" vertex="1" parent="1">
          <mxGeometry x="220" y="230" width="40" height="20" as="geometry" />
        </mxCell>
        <mxCell id="td2FWiPlg4FryS3ejVmA-127" value="1" style="text;html=1;strokeColor=none;fillColor=none;align=center;verticalAlign=middle;whiteSpace=wrap;rounded=0;" vertex="1" parent="1">
          <mxGeometry x="340" y="223" width="40" height="20" as="geometry" />
        </mxCell>
        <mxCell id="td2FWiPlg4FryS3ejVmA-128" value="1" style="text;html=1;strokeColor=none;fillColor=none;align=center;verticalAlign=middle;whiteSpace=wrap;rounded=0;" vertex="1" parent="1">
          <mxGeometry x="460" y="230" width="40" height="20" as="geometry" />
        </mxCell>
        <mxCell id="td2FWiPlg4FryS3ejVmA-129" value="4" style="text;html=1;strokeColor=none;fillColor=none;align=center;verticalAlign=middle;whiteSpace=wrap;rounded=0;" vertex="1" parent="1">
          <mxGeometry x="150" y="114.83999999999999" width="40" height="20" as="geometry" />
        </mxCell>
        <mxCell id="td2FWiPlg4FryS3ejVmA-130" value="4" style="text;html=1;strokeColor=none;fillColor=none;align=center;verticalAlign=middle;whiteSpace=wrap;rounded=0;" vertex="1" parent="1">
          <mxGeometry x="285" y="109.99999999999999" width="40" height="20" as="geometry" />
        </mxCell>
        <mxCell id="td2FWiPlg4FryS3ejVmA-131" value="4" style="text;html=1;strokeColor=none;fillColor=none;align=center;verticalAlign=middle;whiteSpace=wrap;rounded=0;" vertex="1" parent="1">
          <mxGeometry x="393.5" y="114.83999999999999" width="40" height="20" as="geometry" />
        </mxCell>
        <mxCell id="td2FWiPlg4FryS3ejVmA-132" value="4" style="text;html=1;strokeColor=none;fillColor=none;align=center;verticalAlign=middle;whiteSpace=wrap;rounded=0;" vertex="1" parent="1">
          <mxGeometry x="517.5" y="120" width="25" height="20" as="geometry" />
        </mxCell>
        <mxCell id="td2FWiPlg4FryS3ejVmA-133" value="4" style="text;html=1;strokeColor=none;fillColor=none;align=center;verticalAlign=middle;whiteSpace=wrap;rounded=0;" vertex="1" parent="1">
          <mxGeometry x="510" y="230" width="40" height="20" as="geometry" />
        </mxCell>
        <mxCell id="td2FWiPlg4FryS3ejVmA-138" value="4" style="text;html=1;strokeColor=none;fillColor=none;align=center;verticalAlign=middle;whiteSpace=wrap;rounded=0;" vertex="1" parent="1">
          <mxGeometry x="285" y="230" width="25" height="20" as="geometry" />
        </mxCell>
        <mxCell id="td2FWiPlg4FryS3ejVmA-139" value="4" style="text;html=1;strokeColor=none;fillColor=none;align=center;verticalAlign=middle;whiteSpace=wrap;rounded=0;" vertex="1" parent="1">
          <mxGeometry x="162" y="227" width="15" height="20" as="geometry" />
        </mxCell>
        <mxCell id="td2FWiPlg4FryS3ejVmA-141" value="&lt;font style=&quot;font-size: 14px&quot;&gt;&lt;b&gt;h1&lt;/b&gt;&lt;/font&gt;" style="text;html=1;strokeColor=none;fillColor=none;align=center;verticalAlign=middle;whiteSpace=wrap;rounded=0;" vertex="1" parent="1">
          <mxGeometry x="85" y="390" width="40" height="20" as="geometry" />
        </mxCell>
        <mxCell id="td2FWiPlg4FryS3ejVmA-142" value="&lt;font style=&quot;font-size: 14px&quot;&gt;&lt;b&gt;h2&lt;/b&gt;&lt;/font&gt;" style="text;html=1;strokeColor=none;fillColor=none;align=center;verticalAlign=middle;whiteSpace=wrap;rounded=0;" vertex="1" parent="1">
          <mxGeometry x="120" y="390" width="40" height="20" as="geometry" />
        </mxCell>
        <mxCell id="td2FWiPlg4FryS3ejVmA-143" value="&lt;font style=&quot;font-size: 14px&quot;&gt;&lt;b&gt;h3&lt;/b&gt;&lt;/font&gt;" style="text;html=1;strokeColor=none;fillColor=none;align=center;verticalAlign=middle;whiteSpace=wrap;rounded=0;" vertex="1" parent="1">
          <mxGeometry x="150" y="390" width="40" height="20" as="geometry" />
        </mxCell>
        <mxCell id="td2FWiPlg4FryS3ejVmA-144" value="&lt;font style=&quot;font-size: 14px&quot;&gt;&lt;b&gt;h4&lt;/b&gt;&lt;/font&gt;" style="text;html=1;strokeColor=none;fillColor=none;align=center;verticalAlign=middle;whiteSpace=wrap;rounded=0;" vertex="1" parent="1">
          <mxGeometry x="180" y="390" width="40" height="20" as="geometry" />
        </mxCell>
        <mxCell id="td2FWiPlg4FryS3ejVmA-146" value="&lt;font style=&quot;font-size: 14px&quot;&gt;&lt;b&gt;h5&lt;/b&gt;&lt;/font&gt;" style="text;html=1;strokeColor=none;fillColor=none;align=center;verticalAlign=middle;whiteSpace=wrap;rounded=0;" vertex="1" parent="1">
          <mxGeometry x="220" y="390" width="40" height="20" as="geometry" />
        </mxCell>
        <mxCell id="td2FWiPlg4FryS3ejVmA-147" value="&lt;font style=&quot;font-size: 14px&quot;&gt;&lt;b&gt;h6&lt;/b&gt;&lt;/font&gt;" style="text;html=1;strokeColor=none;fillColor=none;align=center;verticalAlign=middle;whiteSpace=wrap;rounded=0;" vertex="1" parent="1">
          <mxGeometry x="250" y="390" width="40" height="20" as="geometry" />
        </mxCell>
        <mxCell id="td2FWiPlg4FryS3ejVmA-148" value="&lt;font style=&quot;font-size: 14px&quot;&gt;&lt;b&gt;h7&lt;/b&gt;&lt;/font&gt;" style="text;html=1;strokeColor=none;fillColor=none;align=center;verticalAlign=middle;whiteSpace=wrap;rounded=0;" vertex="1" parent="1">
          <mxGeometry x="280" y="390" width="40" height="20" as="geometry" />
        </mxCell>
        <mxCell id="td2FWiPlg4FryS3ejVmA-149" value="&lt;font style=&quot;font-size: 14px&quot;&gt;&lt;b&gt;h8&lt;/b&gt;&lt;/font&gt;" style="text;html=1;strokeColor=none;fillColor=none;align=center;verticalAlign=middle;whiteSpace=wrap;rounded=0;" vertex="1" parent="1">
          <mxGeometry x="310" y="390" width="40" height="20" as="geometry" />
        </mxCell>
        <mxCell id="td2FWiPlg4FryS3ejVmA-150" value="&lt;font style=&quot;font-size: 14px&quot;&gt;&lt;b&gt;h9&lt;/b&gt;&lt;/font&gt;" style="text;html=1;strokeColor=none;fillColor=none;align=center;verticalAlign=middle;whiteSpace=wrap;rounded=0;" vertex="1" parent="1">
          <mxGeometry x="340" y="390" width="40" height="20" as="geometry" />
        </mxCell>
        <mxCell id="td2FWiPlg4FryS3ejVmA-151" value="&lt;font style=&quot;font-size: 14px&quot;&gt;&lt;b&gt;h10&lt;/b&gt;&lt;/font&gt;" style="text;html=1;strokeColor=none;fillColor=none;align=center;verticalAlign=middle;whiteSpace=wrap;rounded=0;" vertex="1" parent="1">
          <mxGeometry x="369" y="390" width="40" height="20" as="geometry" />
        </mxCell>
        <mxCell id="td2FWiPlg4FryS3ejVmA-152" value="&lt;font style=&quot;font-size: 14px&quot;&gt;&lt;b&gt;h11&lt;/b&gt;&lt;/font&gt;" style="text;html=1;strokeColor=none;fillColor=none;align=center;verticalAlign=middle;whiteSpace=wrap;rounded=0;" vertex="1" parent="1">
          <mxGeometry x="400" y="390" width="40" height="20" as="geometry" />
        </mxCell>
        <mxCell id="td2FWiPlg4FryS3ejVmA-153" value="&lt;font style=&quot;font-size: 14px&quot;&gt;&lt;b&gt;h12&lt;/b&gt;&lt;/font&gt;" style="text;html=1;strokeColor=none;fillColor=none;align=center;verticalAlign=middle;whiteSpace=wrap;rounded=0;" vertex="1" parent="1">
          <mxGeometry x="430" y="390" width="40" height="20" as="geometry" />
        </mxCell>
        <mxCell id="td2FWiPlg4FryS3ejVmA-154" value="&lt;font style=&quot;font-size: 14px&quot;&gt;&lt;b&gt;h13&lt;/b&gt;&lt;/font&gt;" style="text;html=1;strokeColor=none;fillColor=none;align=center;verticalAlign=middle;whiteSpace=wrap;rounded=0;" vertex="1" parent="1">
          <mxGeometry x="460" y="390" width="40" height="20" as="geometry" />
        </mxCell>
        <mxCell id="td2FWiPlg4FryS3ejVmA-155" value="&lt;font style=&quot;font-size: 14px&quot;&gt;&lt;b&gt;h14&lt;/b&gt;&lt;/font&gt;" style="text;html=1;strokeColor=none;fillColor=none;align=center;verticalAlign=middle;whiteSpace=wrap;rounded=0;" vertex="1" parent="1">
          <mxGeometry x="490" y="390" width="40" height="20" as="geometry" />
        </mxCell>
        <mxCell id="td2FWiPlg4FryS3ejVmA-156" value="&lt;font style=&quot;font-size: 14px&quot;&gt;&lt;b&gt;h15&lt;/b&gt;&lt;/font&gt;" style="text;html=1;strokeColor=none;fillColor=none;align=center;verticalAlign=middle;whiteSpace=wrap;rounded=0;" vertex="1" parent="1">
          <mxGeometry x="517.5" y="390" width="40" height="20" as="geometry" />
        </mxCell>
        <mxCell id="td2FWiPlg4FryS3ejVmA-157" value="&lt;font style=&quot;font-size: 14px&quot;&gt;&lt;b&gt;h16&lt;/b&gt;&lt;/font&gt;" style="text;html=1;strokeColor=none;fillColor=none;align=center;verticalAlign=middle;whiteSpace=wrap;rounded=0;" vertex="1" parent="1">
          <mxGeometry x="550" y="390" width="40" height="20" as="geometry" />
        </mxCell>
      </root>
    </mxGraphModel>
  </diagram>
</mxfile>
